REM DIRINDEX 1\2,1\3\7,1\3\8,1\4\9,1\4\10,1\4\11,1\5\12,1\5\13,1\5\14,1\6\15,1\6\16,1\6\17
REM DIRNAME "folder01","folder02","folder03","folder04","folder05","folder06","folder07","folder08","folder09","folder10","folder11","folder12","folder13","folder14","folder15","folder16","folder17"
TITLE ""
FILE "2Q_j_1314-1327.mp3" MP3
  TRACK 01 AUDIO
    TITLE "0:"
    INDEX 01 00:00:00
  TRACK 02 AUDIO
    TITLE "9:cjc174_0158"
    INDEX 01 00:00:08
  TRACK 03 AUDIO
    TITLE "0:"
    INDEX 01 00:01:49
  TRACK 04 AUDIO
    TITLE "10:cjc174_0159"
    INDEX 01 00:02:31
  TRACK 05 AUDIO
    TITLE "0:"
    INDEX 01 00:04:47
  TRACK 06 AUDIO
    TITLE "11:cjc174_0160"
    INDEX 01 00:05:17
  TRACK 07 AUDIO
    TITLE "0:"
    INDEX 01 00:08:33
  TRACK 08 AUDIO
    TITLE "9:cjc174_0161"
    INDEX 01 00:09:07
  TRACK 09 AUDIO
    TITLE "0:"
    INDEX 01 00:11:41
  TRACK 10 AUDIO
    TITLE "10:cjc174_0162"
    INDEX 01 00:12:15
  TRACK 11 AUDIO
    TITLE "0:"
    INDEX 01 00:14:14
  TRACK 12 AUDIO
    TITLE "11:cjc174_0163"
    INDEX 01 00:14:57
  TRACK 13 AUDIO
    TITLE "0:"
    INDEX 01 00:19:74
  TRACK 14 AUDIO
    TITLE "9:cjc174_0164"
    INDEX 01 00:20:46
  TRACK 15 AUDIO
    TITLE "0:"
    INDEX 01 00:22:33
  TRACK 16 AUDIO
    TITLE "10:cjc174_0165"
    INDEX 01 00:23:07
  TRACK 17 AUDIO
    TITLE "0:"
    INDEX 01 00:25:71
  TRACK 18 AUDIO
    TITLE "11:cjc174_0166"
    INDEX 01 00:26:39
  TRACK 19 AUDIO
    TITLE "0:"
    INDEX 01 00:30:11
  TRACK 20 AUDIO
    TITLE "9:cjc174_0167"
    INDEX 01 00:30:62
  TRACK 21 AUDIO
    TITLE "0:"
    INDEX 01 00:31:72
  TRACK 22 AUDIO
    TITLE "10:cjc174_0168"
    INDEX 01 00:32:42
  TRACK 23 AUDIO
    TITLE "0:"
    INDEX 01 00:34:09
  TRACK 24 AUDIO
    TITLE "11:cjc174_0169"
    INDEX 01 00:34:54
  TRACK 25 AUDIO
    TITLE "0:"
    INDEX 01 00:40:69
  TRACK 26 AUDIO
    TITLE "9:cjc174_0170"
    INDEX 01 00:41:43
  TRACK 27 AUDIO
    TITLE "0:"
    INDEX 01 00:42:62
  TRACK 28 AUDIO
    TITLE "10:cjc174_0171"
    INDEX 01 00:43:34
  TRACK 29 AUDIO
    TITLE "0:"
    INDEX 01 00:46:71
  TRACK 30 AUDIO
    TITLE "11:cjc174_0172"
    INDEX 01 00:47:41
  TRACK 31 AUDIO
    TITLE "0:"
    INDEX 01 00:50:53
  TRACK 32 AUDIO
    TITLE "9:cjc174_0173"
    INDEX 01 00:51:25
  TRACK 33 AUDIO
    TITLE "0:"
    INDEX 01 00:53:42
  TRACK 34 AUDIO
    TITLE "10:cjc174_0174"
    INDEX 01 00:54:16
  TRACK 35 AUDIO
    TITLE "0:"
    INDEX 01 00:56:07
  TRACK 36 AUDIO
    TITLE "11:cjc174_0175"
    INDEX 01 00:56:50
  TRACK 37 AUDIO
    TITLE "0:"
    INDEX 01 01:00:12
  TRACK 38 AUDIO
    TITLE "9:cjc174_0176"
    INDEX 01 01:00:60
  TRACK 39 AUDIO
    TITLE "0:"
    INDEX 01 01:02:02
  TRACK 40 AUDIO
    TITLE "10:cjc174_0177"
    INDEX 01 01:02:47
  TRACK 41 AUDIO
    TITLE "0:"
    INDEX 01 01:04:08
  TRACK 42 AUDIO
    TITLE "11:cjc174_0178"
    INDEX 01 01:04:55
  TRACK 43 AUDIO
    TITLE "0:"
    INDEX 01 01:10:15
  TRACK 44 AUDIO
    TITLE "9:cjc174_0179"
    INDEX 01 01:10:62
  TRACK 45 AUDIO
    TITLE "0:"
    INDEX 01 01:12:74
  TRACK 46 AUDIO
    TITLE "10:cjc174_0180"
    INDEX 01 01:13:46
  TRACK 47 AUDIO
    TITLE "0:"
    INDEX 01 01:15:55
  TRACK 48 AUDIO
    TITLE "11:cjc174_0181"
    INDEX 01 01:16:25
  TRACK 49 AUDIO
    TITLE "0:"
    INDEX 01 01:20:31
  TRACK 50 AUDIO
    TITLE "9:cjc174_0182"
    INDEX 01 01:21:03
  TRACK 51 AUDIO
    TITLE "0:"
    INDEX 01 01:22:14
  TRACK 52 AUDIO
    TITLE "10:cjc174_0183"
    INDEX 01 01:22:65
  TRACK 53 AUDIO
    TITLE "0:"
    INDEX 01 01:24:15
  TRACK 54 AUDIO
    TITLE "11:cjc174_0184"
    INDEX 01 01:24:60
  TRACK 55 AUDIO
    TITLE "0:"
    INDEX 01 01:28:30
  TRACK 56 AUDIO
    TITLE "9:cjc174_0185"
    INDEX 01 01:29:08
  TRACK 57 AUDIO
    TITLE "0:"
    INDEX 01 01:30:18
  TRACK 58 AUDIO
    TITLE "10:cjc174_0186"
    INDEX 01 01:30:66
  TRACK 59 AUDIO
    TITLE "0:"
    INDEX 01 01:35:54
  TRACK 60 AUDIO
    TITLE "11:cjc174_0187"
    INDEX 01 01:36:22
  TRACK 61 AUDIO
    TITLE "0:"
    INDEX 01 01:40:63
  TRACK 62 AUDIO
    TITLE "9:cjc174_0188"
    INDEX 01 01:41:35
  TRACK 63 AUDIO
    TITLE "0:"
    INDEX 01 01:43:44
  TRACK 64 AUDIO
    TITLE "10:cjc174_0189"
    INDEX 01 01:44:20
  TRACK 65 AUDIO
    TITLE "0:"
    INDEX 01 01:46:62
  TRACK 66 AUDIO
    TITLE "11:cjc174_0190"
    INDEX 01 01:47:32
  TRACK 67 AUDIO
    TITLE "0:"
    INDEX 01 01:51:55
  TRACK 68 AUDIO
    TITLE "9:cjc174_0191"
    INDEX 01 01:52:27
  TRACK 69 AUDIO
    TITLE "0:"
    INDEX 01 01:53:42
  TRACK 70 AUDIO
    TITLE "10:cjc174_0192"
    INDEX 01 01:54:12
  TRACK 71 AUDIO
    TITLE "0:"
    INDEX 01 01:56:11
  TRACK 72 AUDIO
    TITLE "11:cjc174_0193"
    INDEX 01 01:56:54
  TRACK 73 AUDIO
    TITLE "0:"
    INDEX 01 02:01:49
  TRACK 74 AUDIO
    TITLE "9:cjc174_0194"
    INDEX 01 02:02:25
  TRACK 75 AUDIO
    TITLE "0:"
    INDEX 01 02:03:72
  TRACK 76 AUDIO
    TITLE "10:cjc174_0195"
    INDEX 01 02:04:50
  TRACK 77 AUDIO
    TITLE "0:"
    INDEX 01 02:07:27
  TRACK 78 AUDIO
    TITLE "11:cjc174_0196"
    INDEX 01 02:07:72
  TRACK 79 AUDIO
    TITLE "0:"
    INDEX 01 02:13:70
  TRACK 80 AUDIO
    TITLE "9:cjc174_0197"
    INDEX 01 02:14:40
  TRACK 81 AUDIO
    TITLE "0:"
    INDEX 01 02:16:24
  TRACK 82 AUDIO
    TITLE "10:cjc174_0198"
    INDEX 01 02:16:73
  TRACK 83 AUDIO
    TITLE "0:"
    INDEX 01 02:18:54
  TRACK 84 AUDIO
    TITLE "11:cjc174_0199"
    INDEX 01 02:19:24
  TRACK 85 AUDIO
    TITLE "0:"
    INDEX 01 02:24:19
